<?xml version="1.0" encoding="UTF-8"?>
<svg xmlns="http://www.w3.org/2000/svg" xmlns:xlink="http://www.w3.org/1999/xlink" viewBox="0 0 500 500">
  <defs>
    <style>
      .cls-1, .cls-2 {
        fill: #fff;
      }

      .cls-3 {
        fill: url(#Degradado_sin_nombre_6);
      }

      .cls-4 {
        fill: url(#Degradado_sin_nombre_25-3);
      }

      .cls-4, .cls-2, .cls-5, .cls-6, .cls-7, .cls-8, .cls-9 {
        opacity: .3;
      }

      .cls-4, .cls-5, .cls-6, .cls-7, .cls-9, .cls-10 {
        mix-blend-mode: multiply;
      }

      .cls-11 {
        letter-spacing: .29em;
      }

      .cls-12 {
        fill: url(#Degradado_sin_nombre_10-2);
        filter: url(#drop-shadow-4);
      }

      .cls-13 {
        fill: url(#Degradado_sin_nombre_2);
        filter: url(#drop-shadow-5);
      }

      .cls-14 {
        isolation: isolate;
      }

      .cls-15 {
        fill: url(#Degradado_sin_nombre_80);
        filter: url(#drop-shadow-6);
      }

      .cls-2, .cls-8, .cls-16 {
        mix-blend-mode: overlay;
      }

      .cls-17 {
        letter-spacing: .3em;
      }

      .cls-18 {
        letter-spacing: .29em;
      }

      .cls-19 {
        letter-spacing: .28em;
      }

      .cls-5 {
        fill: url(#Degradado_sin_nombre_37-2);
      }

      .cls-20 {
        fill: url(#Degradado_sin_nombre_10);
        filter: url(#drop-shadow-2);
      }

      .cls-21 {
        letter-spacing: .1em;
      }

      .cls-22 {
        fill: url(#Degradado_sin_nombre_37);
        filter: url(#drop-shadow-3);
      }

      .cls-6 {
        fill: url(#Degradado_sin_nombre_25-2);
      }

      .cls-7 {
        fill: url(#Degradado_sin_nombre_25-5);
      }

      .cls-23 {
        fill: url(#Degradado_sin_nombre_25);
        filter: url(#drop-shadow-1);
      }

      .cls-9 {
        fill: url(#Degradado_sin_nombre_25-4);
      }

      .cls-24 {
        letter-spacing: .09em;
      }

      .cls-25 {
        filter: url(#drop-shadow-7);
        font-family: MontserratRoman-SemiBold, Montserrat;
        font-size: 42.76px;
        font-variation-settings: 'wght' 600;
      }

      .cls-10 {
        fill: url(#Degradado_sin_nombre_13);
      }

      .cls-10, .cls-16 {
        opacity: .5;
      }

      .cls-26 {
        letter-spacing: .3em;
      }

      .cls-27 {
        letter-spacing: .3em;
      }

      .cls-28 {
        fill: #e6e6e6;
        filter: url(#drop-shadow-8);
        font-family: MontserratItalic-LightItalic, Montserrat;
        font-size: 15.99px;
        font-variation-settings: 'wght' 300;
      }

      .cls-29 {
        letter-spacing: .29em;
      }
    </style>
    <linearGradient id="Degradado_sin_nombre_6" data-name="Degradado sin nombre 6" x1="9.41" y1="2.12" x2="499.79" y2="507.36" gradientUnits="userSpaceOnUse">
      <stop offset="0" stop-color="#899791"/>
      <stop offset=".2" stop-color="#687576"/>
      <stop offset=".51" stop-color="#313d49"/>
      <stop offset="1" stop-color="#101324"/>
    </linearGradient>
    <linearGradient id="Degradado_sin_nombre_25" data-name="Degradado sin nombre 25" x1="215.68" y1="182.36" x2="222.36" y2="263.5" gradientUnits="userSpaceOnUse">
      <stop offset="0" stop-color="#fee179"/>
      <stop offset=".47" stop-color="#f48e39"/>
      <stop offset="1" stop-color="#dd393a"/>
    </linearGradient>
    <filter id="drop-shadow-1" filterUnits="userSpaceOnUse">
      <feOffset dx="3.83" dy="3.83"/>
      <feGaussianBlur result="blur" stdDeviation="2.87"/>
      <feFlood flood-color="#000" flood-opacity=".4"/>
      <feComposite in2="blur" operator="in"/>
      <feComposite in="SourceGraphic"/>
    </filter>
    <linearGradient id="Degradado_sin_nombre_25-2" data-name="Degradado sin nombre 25" x1="181.76" y1="185.15" x2="188.44" y2="266.29" xlink:href="#Degradado_sin_nombre_25"/>
    <linearGradient id="Degradado_sin_nombre_25-3" data-name="Degradado sin nombre 25" x1="226.11" y1="181.5" x2="232.79" y2="262.64" xlink:href="#Degradado_sin_nombre_25"/>
    <linearGradient id="Degradado_sin_nombre_25-4" data-name="Degradado sin nombre 25" x1="219.91" y1="182.01" x2="226.59" y2="263.15" xlink:href="#Degradado_sin_nombre_25"/>
    <linearGradient id="Degradado_sin_nombre_10" data-name="Degradado sin nombre 10" x1="191.39" y1="156.14" x2="254.19" y2="236.49" gradientUnits="userSpaceOnUse">
      <stop offset="0" stop-color="#fee179"/>
      <stop offset="1" stop-color="#f48e39"/>
    </linearGradient>
    <filter id="drop-shadow-2" filterUnits="userSpaceOnUse">
      <feOffset dx="3.83" dy="3.83"/>
      <feGaussianBlur result="blur-2" stdDeviation="2.87"/>
      <feFlood flood-color="#000" flood-opacity=".4"/>
      <feComposite in2="blur-2" operator="in"/>
      <feComposite in="SourceGraphic"/>
    </filter>
    <linearGradient id="Degradado_sin_nombre_37" data-name="Degradado sin nombre 37" x1="284.41" y1="149.67" x2="269.02" y2="271.42" gradientUnits="userSpaceOnUse">
      <stop offset="0" stop-color="#2fa27b"/>
      <stop offset=".47" stop-color="#ee7349"/>
      <stop offset="1" stop-color="#a01f58"/>
    </linearGradient>
    <filter id="drop-shadow-3" filterUnits="userSpaceOnUse">
      <feOffset dx="3.83" dy="3.83"/>
      <feGaussianBlur result="blur-3" stdDeviation="2.87"/>
      <feFlood flood-color="#000" flood-opacity=".4"/>
      <feComposite in2="blur-3" operator="in"/>
      <feComposite in="SourceGraphic"/>
    </filter>
    <linearGradient id="Degradado_sin_nombre_37-2" data-name="Degradado sin nombre 37" x1="278.79" y1="148.96" x2="263.4" y2="270.71" xlink:href="#Degradado_sin_nombre_37"/>
    <linearGradient id="Degradado_sin_nombre_25-5" data-name="Degradado sin nombre 25" x1="295.75" y1="151.1" x2="280.36" y2="272.85" xlink:href="#Degradado_sin_nombre_25"/>
    <linearGradient id="Degradado_sin_nombre_10-2" data-name="Degradado sin nombre 10" x1="313.24" y1="200.2" x2="270.82" y2="272.01" xlink:href="#Degradado_sin_nombre_10"/>
    <filter id="drop-shadow-4" filterUnits="userSpaceOnUse">
      <feOffset dx="3.83" dy="3.83"/>
      <feGaussianBlur result="blur-4" stdDeviation="2.87"/>
      <feFlood flood-color="#000" flood-opacity=".4"/>
      <feComposite in2="blur-4" operator="in"/>
      <feComposite in="SourceGraphic"/>
    </filter>
    <linearGradient id="Degradado_sin_nombre_2" data-name="Degradado sin nombre 2" x1="166.42" y1="138.25" x2="174.8" y2="165.03" gradientUnits="userSpaceOnUse">
      <stop offset="0" stop-color="#8db8ef"/>
      <stop offset=".73" stop-color="#5479bd"/>
      <stop offset="1" stop-color="#624f8f"/>
    </linearGradient>
    <filter id="drop-shadow-5" filterUnits="userSpaceOnUse">
      <feOffset dx="3.83" dy="3.83"/>
      <feGaussianBlur result="blur-5" stdDeviation="2.87"/>
      <feFlood flood-color="#000" flood-opacity=".4"/>
      <feComposite in2="blur-5" operator="in"/>
      <feComposite in="SourceGraphic"/>
    </filter>
    <linearGradient id="Degradado_sin_nombre_13" data-name="Degradado sin nombre 13" x1="174.3" y1="165.47" x2="173.02" y2="160.49" gradientUnits="userSpaceOnUse">
      <stop offset="0" stop-color="#5479bd"/>
      <stop offset="1" stop-color="#624f8f" stop-opacity="0"/>
    </linearGradient>
    <linearGradient id="Degradado_sin_nombre_80" data-name="Degradado sin nombre 80" x1="174.58" y1="165.57" x2="175.48" y2="168.35" gradientUnits="userSpaceOnUse">
      <stop offset="0" stop-color="#8db8ef"/>
      <stop offset=".39" stop-color="#5479bd"/>
      <stop offset="1" stop-color="#624f8f"/>
    </linearGradient>
    <filter id="drop-shadow-6" filterUnits="userSpaceOnUse">
      <feOffset dx="3.83" dy="3.83"/>
      <feGaussianBlur result="blur-6" stdDeviation="2.87"/>
      <feFlood flood-color="#000" flood-opacity=".4"/>
      <feComposite in2="blur-6" operator="in"/>
      <feComposite in="SourceGraphic"/>
    </filter>
    <filter id="drop-shadow-7" filterUnits="userSpaceOnUse">
      <feOffset dx="3.82" dy="3.82"/>
      <feGaussianBlur result="blur-7" stdDeviation="2.87"/>
      <feFlood flood-color="#000" flood-opacity=".4"/>
      <feComposite in2="blur-7" operator="in"/>
      <feComposite in="SourceGraphic"/>
    </filter>
    <filter id="drop-shadow-8" filterUnits="userSpaceOnUse">
      <feOffset dx="3.82" dy="3.82"/>
      <feGaussianBlur result="blur-8" stdDeviation="2.87"/>
      <feFlood flood-color="#000" flood-opacity=".4"/>
      <feComposite in2="blur-8" operator="in"/>
      <feComposite in="SourceGraphic"/>
    </filter>
  </defs>
  <g class="cls-14">
    <g id="BACKGROUND">
      <rect class="cls-3" width="500" height="500"/>
    </g>
    <g id="OBJECTS">
      <g>
        <path class="cls-23" d="M205.13,265.3c-1.17-.68-2.3-1.39-3.4-2.12-1.5-1.01-4.69-22.47-6.08-23.58-.72-.58,.33,19.24-.35,18.64-9.5-8.36-15.9-19.15-19.07-30.41-.33-1.16,3.44-20.77,3.18-21.93-.27-1.24-4.57,15.96-4.76,14.72-1.87-11.83-.23-23.72,5.06-33.46,0,0,14.15-8.25,28.26,2.8,.75,.59-10.76,.32-10.01,1.02,.53,.49,13.3,1.92,13.83,2.47,2.18,2.3,4.32,5.13,6.38,8.59,16.48,27.7,28.69,28.77,38.38,30.64,9.69,1.87,9.23,22.01,9.23,22.01l-45.94,13.96-14.71-3.34Z"/>
        <g class="cls-8">
          <path class="cls-1" d="M199.69,192.61c.48,.45,11.21,1.69,13.44,2.32-.45-.52-.89-1.02-1.34-1.5-.28-.29-4.04-.84-7.57-1.36-2.52,.09-4.88,.21-4.53,.54Z"/>
          <path class="cls-1" d="M258.28,234.31c1.08,.21,2.03,.65,2.87,1.26-1.2-1.48-2.7-2.55-4.6-2.92-6.33-1.22-13.73-2.1-22.69-10.27,9.74,9.71,17.69,10.63,24.42,11.93Z"/>
          <path class="cls-1" d="M177.97,229.47c-.33-1.16,3.44-20.77,3.18-21.93-.2-.9-2.53,7.96-3.85,12.37-.66,4.01-1.19,7.44-1.06,7.91,3.06,10.85,9.12,21.26,18.06,29.48-7.99-7.94-13.47-17.69-16.33-27.83Z"/>
          <path class="cls-1" d="M181.44,188.79s12.81-7.46,26.21,1.34c.29-.05,.42-.12,.32-.2-14.11-11.05-28.26-2.8-28.26-2.8-5.29,9.74-6.93,21.63-5.06,33.46,.06,.39,.54-1.07,1.17-3.21-.78-10.19,1.06-20.19,5.62-28.6Z"/>
          <path class="cls-1" d="M197.39,241.24c-.19-.15-.25,1.09-.26,2.99,1.53,6.68,3.52,18.21,4.61,18.94,.4,.27,.82,.51,1.23,.77-1.62-4.22-4.33-21.7-5.58-22.7Z"/>
        </g>
        <path class="cls-6" d="M176.71,229.4c3.31,10.68,9.54,20.86,18.59,28.82,.43,.38,.18-7.24,.11-12.86-7.44-3.58-14.02-9.17-18.7-15.96Z"/>
        <path class="cls-4" d="M256.55,232.65c-1.01-.2-2.06-.38-3.13-.59-7.02,13.19-25.86,17.66-39.72,17.64-5.5,0-10.98-1.21-16.1-3.36,1.45,6.74,3.16,16.17,4.14,16.83,1.1,.74,2.24,1.45,3.4,2.12l14.71,3.34,45.94-13.96s.46-20.15-9.23-22.01Z"/>
        <path class="cls-9" d="M264.97,245.23c-1.38-.14-2.75-.36-4.13-.52-2.08-.25-4.17-.47-6.25-.71-4.05-.48-8.11-1.06-12.04-2.17-.31-.09-.51-.57-.21-.8,.53-.41,1.1-.76,1.66-1.13-5.64-.83-11.4-1.21-16.62-3.72-.27-.13-.31-.55-.1-.75,1.27-1.17,3.18-.91,4.81-1.23-.71-.74-1.81-1.2-2.69-1.58-1.23-.53-2.51-.96-3.76-1.44-1.22-.47-2.38-1.05-3.52-1.68-3.12-1.72-6.14-3.78-8.61-6.37-.23-.25-.15-.72,.21-.8,2-.42,4.08,.16,6.07-.18-1.75-2.67-4.74-4.46-7.24-6.33-2.86-2.15-5.8-4.77-7.45-8-.16-.31,.03-.73,.41-.72,.89,.02,1.76,.18,2.64,.19-1.09-2.3-3.56-3.81-5.61-5.13-2.36-1.52-4.96-3.01-6.57-5.39-.25-.37,.16-.78,.54-.7,.31,.07,.67-.06,1.02-.18-.41-.97-1.35-1.73-2.17-2.33-2.12-1.55-4.53-2.61-6.81-3.87-1.51-.84-2.94-1.85-4.37-2.81-.51-.34-1.02-.69-1.53-1.03-1.08,.39-1.9,.77-2.39,1.02,.11,2.91,.56,5.78,1.03,8.65,.2,1.22,.39,2.42,.46,3.65,.06,.99,.12,2.18,.89,2.91,.3,.28,.66,.58,.99,.82,.37,.27,.81,.46,1.06,.85,.47,.74,.58,1.76,.7,2.61,.14,.98,.23,1.94,.43,2.9,.29,1.39,.53,2.78,.79,4.17,.45,2.43,.96,4.86,1.76,7.2,.65-1.22,.61-2.78,1.15-4.05,.16-.37,.63-.49,.87-.11,2.03,3.09,2.92,6.74,4.29,10.14,.76,1.89,1.79,3.66,2.84,5.4,.85,1.42,1.78,2.8,2.75,4.15,.12-1.03,.13-2.06,.13-3.1,0-.33,.42-.64,.72-.41,1.47,1.08,2.48,2.61,3.4,4.15,.85,1.43,1.7,2.81,2.71,4.14,1.12,1.48,2.25,2.96,3.42,4.4,2.24,2.74,4.66,5.4,7.51,7.5,.36-.9,.21-1.96,.05-2.9-.2-1.14-.5-2.27-.52-3.43,0-.38,.41-.57,.72-.41,.75,.37,1.47,.8,2.15,1.28,2.78,1.97,5.01,4.57,7.56,6.81,2.79,2.45,6.06,4.08,9.56,5.27,1.78,.61,3.58,1.13,5.38,1.68,.25,.08,.49,.15,.74,.23l21.99-6.68s.1-4.5-.81-9.44Z"/>
        <path class="cls-20" d="M179.06,166.65c3.87,13.72,9.61,26.95,16.75,39.28,15.42,26.7,39.68,48.64,72.04,48.7,12.74,.08,25.28-3,37.08-7.74-12.46,5.65-26.04,9.48-39.82,9.46-32.01,.35-57.84-21.56-74.21-47.4-7.78-12.13-14.12-25.19-18.79-38.83,0,0-.22-.68-.22-.68l-.23-.72,7.4-2.07h0Z"/>
        <path class="cls-22" d="M328.51,237.96c-13.15,19.19-33.41,29.19-54.71,33.14-4.81,.89-9.69,1.48-14.54,1.78-20,1.28-39.69-2.1-54.13-7.58,21.17-3.69,45.49-16.31,58.98-46.11,.58-1.28,5.68,14.48,6.22,13.13,.47-1.18-3.61-19.46-3.17-20.69,.31-.87,10.86,19.74,11.2,18.87,.46-1.16-9.28-23.8-8.77-24.94,10.03-22.6,29.27-41.46,43.19-48.62,.93-.48,.39,29.76,1.27,29.39,.66-.28,2.75-31.2,3.38-31.41,2.59-.9,4.88-1.25,6.74-.98,10.48,1.52,26.2,30.03,14.79,63.44-.44,1.29-13.78,11.49-14.31,12.79-.53,1.33,11.76-6.25,11.13-4.92-1.95,4.2-4.35,8.44-7.27,12.69Z"/>
        <g class="cls-8">
          <path class="cls-1" d="M326.56,232.1c-.33,.82,4.18-1.73,7.57-3.5,.58-1.11,1.13-2.23,1.65-3.33,.2-.43-.96,.07-2.59,.9-3.26,2.71-6.38,5.32-6.62,5.93Z"/>
          <path class="cls-1" d="M280.28,232.43c.46-1.16-9.28-23.8-8.77-24.94,9.67-21.79,27.89-40.09,41.66-47.8-.09-1.77-.21-2.84-.39-2.75-13.91,7.16-33.16,26.02-43.19,48.62-.44,1,6.93,18.38,8.49,23.55,1.23,2.14,2.1,3.55,2.2,3.31Z"/>
          <path class="cls-1" d="M319.34,156.84c2.59-.9,4.88-1.25,6.74-.98,1.77,.26,3.69,1.3,5.6,2.99-2.53-2.84-5.16-4.57-7.53-4.91-1.85-.27-4.14,.08-6.74,.98-.37,.13-1.26,11.04-2.06,19.97,.09,6.97,3.35-17.83,3.98-18.05Z"/>
          <path class="cls-1" d="M265.67,221.87c-.77-1.85-1.38-3.08-1.56-2.68-13.49,29.79-37.8,42.42-58.98,46.11,1.36,.52,2.78,1.01,4.23,1.48,20.42-4.15,43.25-16.73,56.31-44.91Z"/>
          <path class="cls-1" d="M272.25,234.24c.42-1.05-2.79-15.75-3.17-19.75-1.09-1.89-1.85-3.09-1.93-2.86-.36,1.02,2.38,13.75,3.06,18.75,1,2.49,1.84,4.37,2.04,3.86Z"/>
        </g>
        <path class="cls-5" d="M320.83,244.68c-6.57,3.48-18.54,6.15-23.08,.1-10,12.96-30.62,24-43.3,8.98-2.96-3.5-4.56-7.68-5.12-12.1-13.1,14.11-29.42,21.05-44.2,23.63,14.44,5.48,34.13,8.86,54.13,7.58,4.85-.3,9.72-.89,14.54-1.78,20.02-3.71,39.12-12.77,52.26-29.79-1.63,1.25-3.37,2.39-5.23,3.37Z"/>
        <path class="cls-7" d="M290.65,266.51c2.4-1.82,4.68-3.8,6.79-5.91,1.18-1.18,2.3-2.41,3.38-3.69,1.05-1.25,1.99-2.58,3.02-3.85,.92-1.15,2.01-2.15,2.99-3.25,.77-.87,1.53-1.83,1.93-2.93-1.44,.31-2.79,.99-4.3,.88-.33-.02-.52-.29-.46-.61,.34-1.83,1.46-3.46,2.54-4.93,1.14-1.54,2.38-3,3.55-4.52,1.22-1.58,2.15-3.21,3.02-5,1.1-2.26,2.16-4.55,3.2-6.84,.49-1.07,.97-2.15,1.48-3.22,.35-.74,.67-1.48,.83-2.26-.42,.22-.86,.39-1.31,.6-.39,.19-.77-.12-.7-.54,.63-3.7,.92-7.48,.81-11.24-.1-3.44-.53-6.99-1.8-10.21-2.83,4.05-4.03,9.45-8.42,12.21-.29,.18-.59-.01-.7-.29-.12-.31-.32-.57-.51-.84-1.57,2.76-2.83,5.69-4.14,8.58-1.79,3.92-3.58,7.88-5.75,11.61-1.11,1.9-2.33,3.76-3.81,5.39-1.22,1.34-2.68,2.56-4.43,3.12-.15,.05-.37,0-.47-.12-.73-.91-1.09-2.06-1.77-3-1.17,1.89-2.35,3.77-3.55,5.64-.9,1.4-1.8,2.79-2.63,4.24-.74,1.3-1.47,2.6-2.28,3.85-1.51,2.34-3.36,4.8-6.05,5.81-.19,.07-.44-.05-.54-.22-.61-1.07-1.14-2.21-1.93-3.17-1.38,1.41-2.7,2.88-3.98,4.38-2.31,2.71-4.61,5.42-6.55,8.41-.58,.9-1.29,2.09-2.4,2.39-1.13,.31-2.12-.5-2.85-1.31-1.36,1.2-1.99,3.09-2.68,4.7-.4,.94-.85,1.9-1.45,2.74,3.49,.05,7.02-.02,10.56-.25,4.85-.3,9.72-.89,14.54-1.78,5.73-1.06,11.39-2.58,16.85-4.58Z"/>
        <path class="cls-12" d="M316.17,199.69c-5.76,27.27-20.01,54.42-42.37,71.41-4.81,.89-9.69,1.48-14.54,1.78,26.58-13.08,44.08-39.9,53.26-67.47,.66-2.03,1.29-4.09,1.82-6.14,.12-.48,.6-.78,1.08-.69h0c.51,.1,.85,.6,.74,1.11Z"/>
        <g>
          <path class="cls-13" d="M177.98,149.27c-4.42-1.39-8.48-7.96-10.4-11.07-.07-.12-.24-.16-.43-.16l3.28,11.45c.24,.85,.92,1.52,1.78,1.74,1.14,.29,2.09,1.19,2.37,2.44,.35,1.59-.59,3.24-2.14,3.75-1.75,.57-3.61-.42-4.11-2.18-.32-1.13,0-2.3,.75-3.1,.62-.66,.86-1.58,.62-2.45l-3.28-11.44c-.16,.1-.28,.23-.28,.36,.01,3.65,.05,11.38-2.97,14.9-.63,.74-.67,1.82-.03,2.55,2.07,2.38,5.61,5.74,7.47,12.26l4.45-1.27,4.45-1.27c-1.87-6.52-.64-11.24-.15-14.36,.15-.96-.45-1.86-1.38-2.15Z"/>
          <g class="cls-16">
            <path class="cls-1" d="M178.69,149.98c.15,.05,.29,.12,.43,.2-.24-.42-.64-.75-1.14-.91-1.42-.45-2.8-1.43-4.08-2.65,1.48,1.55,3.11,2.84,4.79,3.36Z"/>
            <path class="cls-1" d="M173.15,158.13c1.55-.51,2.49-2.16,2.14-3.75-.18-.81-.64-1.47-1.25-1.92,.25,.35,.44,.75,.54,1.2,.35,1.59-.59,3.24-2.14,3.75-1.03,.34-2.09,.12-2.9-.46,.8,1.1,2.23,1.63,3.61,1.18Z"/>
            <path class="cls-1" d="M171.46,150.88c-.14-.21-.25-.43-.32-.68l-3.28-11.45s.04,0,.06,0c-.12-.2-.24-.39-.35-.56-.07-.12-.24-.16-.43-.16l3.28,11.45c.17,.58,.54,1.07,1.03,1.39Z"/>
            <path class="cls-1" d="M163.85,156.78c-.64-.73-.6-1.81,.03-2.55,2.9-3.39,2.98-10.66,2.97-14.46l-.43-1.52c-.16,.1-.28,.23-.28,.36,.01,3.65,.05,11.38-2.97,14.9-.63,.74-.67,1.82-.03,2.55,2.07,2.38,5.61,5.74,7.47,12.26l.45-.13c-1.92-5.96-5.24-9.14-7.21-11.42Z"/>
          </g>
          <path class="cls-10" d="M178.59,156.79c-2.39,2.14-5.51,3.47-8.87,3.47-1.18,0-2.32-.18-3.41-.47,1.59,2.08,3.22,4.78,4.3,8.54l8.9-2.55c-1-3.51-1.11-6.49-.92-8.98Z"/>
          <path class="cls-15" d="M179.94,167.3l-8.88,2.54c-.84,.24-1.72-.25-1.96-1.08h0c-.24-.84,.25-1.72,1.08-1.96l8.88-2.54c.84-.24,1.72,.25,1.96,1.08h0c.24,.84-.25,1.72-1.08,1.96Z"/>
          <path class="cls-2" d="M169.6,169.05c-.24-.84,.25-1.72,1.08-1.96l8.88-2.54c.34-.1,.68-.07,.98,.04-.39-.34-.94-.49-1.48-.34l-8.88,2.54c-.84,.24-1.33,1.12-1.08,1.96,.14,.5,.52,.88,.98,1.04-.22-.19-.39-.45-.48-.75Z"/>
        </g>
      </g>
    </g>
    <g id="TEXTS">
      <text class="cls-25" transform="translate(53.61 330.62)"><tspan class="cls-21" x="0" y="0">HA</tspan><tspan class="cls-24" x="75.22" y="0">PP</tspan><tspan class="cls-21" x="145.01" y="0">Y QUEEN </tspan></text>
      <text class="cls-28" transform="translate(156.82 364.07)"><tspan class="cls-19" x="0" y="0">F</tspan><tspan class="cls-26" x="14.59" y="0">u</tspan><tspan class="cls-18" x="30.09" y="0">c</tspan><tspan class="cls-17" x="43.62" y="0">k le p</tspan><tspan class="cls-29" x="114.38" y="0">r</tspan><tspan class="cls-26" x="125.33" y="0">in</tspan><tspan class="cls-11" x="149.87" y="0">c</tspan><tspan class="cls-27" x="163.4" y="0">e!</tspan></text>
    </g>
  </g>
</svg>